<?xml version="1.0" encoding="UTF-8"?>
<svg width="16px" height="16px" viewBox="0 0 16 16" version="1.1" xmlns="http://www.w3.org/2000/svg" xmlns:xlink="http://www.w3.org/1999/xlink">
    <!-- Generator: Sketch 52.5 (67469) - http://www.bohemiancoding.com/sketch -->
    <title>Icon-fullscreen</title>
    <desc>Created with Sketch.</desc>
    <g id="BrainFlix" stroke="none" stroke-width="1" fill="none" fill-rule="evenodd">
        <path d="M0,1.77777778 L0,5.33333333 L1.77777778,5.33333333 L1.77777778,1.77777778 L5.33333333,1.77777778 L5.33333333,0 L1.77777778,0 C0.8,0 0,0.8 0,1.77777778 Z M1.77777778,10.6666667 L0,10.6666667 L0,14.2222222 C0,15.2 0.8,16 1.77777778,16 L5.33333333,16 L5.33333333,14.2222222 L1.77777778,14.2222222 L1.77777778,10.6666667 Z M14.2222222,14.2222222 L10.6666667,14.2222222 L10.6666667,16 L14.2222222,16 C15.2,16 16,15.2 16,14.2222222 L16,10.6666667 L14.2222222,10.6666667 L14.2222222,14.2222222 Z M14.2222222,0 L10.6666667,0 L10.6666667,1.77777778 L14.2222222,1.77777778 L14.2222222,5.33333333 L16,5.33333333 L16,1.77777778 C16,0.8 15.2,0 14.2222222,0 Z" id="Icon-fullscreen" fill="#FFFFFF" fill-rule="nonzero"></path>
    </g>
</svg>