<?xml version="1.0" encoding="UTF-8"?>
<svg width="17px" height="16px" viewBox="0 0 17 16" version="1.1" xmlns="http://www.w3.org/2000/svg" xmlns:xlink="http://www.w3.org/1999/xlink">
    <!-- Generator: Sketch 52.5 (67469) - http://www.bohemiancoding.com/sketch -->
    <title>Icon-volume</title>
    <desc>Created with Sketch.</desc>
    <g id="BrainFlix" stroke="none" stroke-width="1" fill="none" fill-rule="evenodd">
        <g id="Icon-volume" fill="#FFFFFF" fill-rule="nonzero">
            <path d="M12.3314286,8 C12.3314286,6.51428571 11.5085714,5.23428571 10.2857143,4.57142857 L10.2857143,11.4285714 C11.4971429,10.7657143 12.3314286,9.48571429 12.3314286,8 Z M0,5.71428571 L0,10.2857143 L3.42857143,10.2857143 L8,14.8571429 L8,1.14285714 L3.42857143,5.71428571 L0,5.71428571 Z M10.2857143,0 L10.2857143,1.71428571 C12.9371429,2.56 14.8571429,5.06285714 14.8571429,8 C14.8571429,10.9371429 12.9371429,13.44 10.2857143,14.2857143 L10.2857143,16 C13.8857143,15.1085714 16.5714286,11.8857143 16.5714286,8 C16.5714286,4.11428571 13.8857143,0.891428571 10.2857143,0 Z" id="Shape"></path>
        </g>
    </g>
</svg>